<?xml version="1.0" encoding="UTF-8" standalone="no"?>
<svg width="120" height="40" viewBox="0 0 120 40" xmlns="http://www.w3.org/2000/svg">
  <g fill="none" fill-rule="evenodd">
    <path d="M20 5C11.716 5 5 11.716 5 20c0 8.284 6.716 15 15 15 8.284 0 15-6.716 15-15 0-8.284-6.716-15-15-15z" fill="#FF9800"/>
    <path d="M20 12c-4.418 0-8 3.582-8 8s3.582 8 8 8 8-3.582 8-8-3.582-8-8-8zm0 12c-2.21 0-4-1.79-4-4s1.79-4 4-4 4 1.79 4 4-1.79 4-4 4z" fill="#FFF"/>
    <text x="45" y="27" font-family="Poppins" font-size="24" font-weight="600" fill="#FF9800">Luvify</text>
  </g>
</svg>
